<svg width="22" height="22" viewBox="0 0 22 22" fill="none" xmlns="http://www.w3.org/2000/svg">
<path fill-rule="evenodd" clip-rule="evenodd" d="M5.54598 5.54573C2.48598 8.60573 2.48598 13.5943 5.54598 16.6543C8.60598 19.7143 13.5945 19.7143 16.6545 16.6543C19.7145 13.5943 19.7145 8.60573 16.6545 5.54573C13.5945 2.48573 8.60598 2.48573 5.54598 5.54573ZM11.5631 6.36859H11.7688C13.6203 6.44573 14.8803 7.78288 14.8803 9.60859C14.906 10.6372 14.3917 12.3343 12.2317 12.8486C11.4603 13.0543 11.0231 13.98 10.9203 14.4172C10.5088 16.0114 7.80883 16.6543 7.5774 14.2629C7.5774 14.2629 6.90883 6.44573 11.5631 6.36859ZM11.666 11.2543C10.6888 11.2543 9.89169 10.4572 9.89169 9.48002C9.89169 8.50288 10.6888 7.70573 11.666 7.70573C12.6431 7.70573 13.4403 8.50288 13.4403 9.48002C13.4403 10.4572 12.6431 11.2543 11.666 11.2543ZM12.206 9.14573H12.6688C12.746 9.14573 12.8231 9.19716 12.8231 9.30002V9.76288C12.8231 9.84002 12.746 9.91716 12.6688 9.91716H12.206C12.1288 9.91716 12.0517 9.9943 12.0517 10.0714V10.5343C12.0517 10.6114 11.9745 10.6886 11.8974 10.6886H11.4088C11.3317 10.6886 11.2545 10.6114 11.2545 10.5343V10.0714C11.2545 9.9943 11.1774 9.91716 11.1003 9.91716H10.6374C10.5603 9.91716 10.4831 9.84002 10.4831 9.76288V9.30002C10.4831 9.22288 10.5603 9.14573 10.6374 9.14573H11.1003C11.1774 9.14573 11.2545 9.06859 11.2545 8.99145V8.52859C11.2545 8.45145 11.3317 8.3743 11.4088 8.3743H11.8974C11.9745 8.3743 12.0517 8.45145 12.0517 8.52859V8.99145C12.0517 9.06859 12.1288 9.14573 12.206 9.14573Z" fill="#28AE6C"/>
<circle cx="11" cy="11" r="10" stroke="#28AE6C"/>
</svg>
