<svg width="44" height="44" viewBox="0 0 44 44" fill="none" xmlns="http://www.w3.org/2000/svg">
<path fill-rule="evenodd" clip-rule="evenodd" d="M33.7813 13.8274C34.1913 14.248 34.4836 14.769 34.6289 15.3381C35.1803 17.4515 35.1803 21.8625 35.1803 21.8625C35.1803 21.8625 35.1803 26.2735 34.6289 28.3869C34.4837 28.9558 34.1916 29.4767 33.7819 29.8973C33.3722 30.3179 32.8591 30.6235 32.2941 30.7835C30.2358 31.35 21.9803 31.35 21.9803 31.35C21.9803 31.35 13.7248 31.35 11.6664 30.7835C10.5306 30.4714 9.63415 29.5529 9.33165 28.3869C8.78027 26.2735 8.78027 21.8625 8.78027 21.8625C8.78027 21.8625 8.78027 17.4515 9.33027 15.3381C9.47557 14.769 9.76785 14.248 10.1778 13.8274C10.5878 13.4068 11.1012 13.1013 11.6664 12.9415C13.7248 12.375 21.9803 12.375 21.9803 12.375C21.9803 12.375 30.2358 12.375 32.2928 12.9415C32.858 13.1013 33.3713 13.4068 33.7813 13.8274ZM19.5049 18.15V26.4L26.1049 22.275L19.5049 18.15Z" fill="white"/>
</svg>
