<svg width="44" height="44" viewBox="0 0 44 44" fill="none" xmlns="http://www.w3.org/2000/svg">
<mask id="mask0_588_39258" style="mask-type:luminance" maskUnits="userSpaceOnUse" x="6" y="11" width="31" height="23">
<path d="M6.875 11H36.5558V33.495H6.875V11Z" fill="white"/>
</mask>
<g mask="url(#mask0_588_39258)">
<path d="M32.0164 12.8837C30.0665 11.9911 28.008 11.3578 25.8935 11C25.6048 11.517 25.3435 12.0491 25.1098 12.595C22.857 12.2555 20.566 12.2555 18.3132 12.595C18.0794 12.0491 17.8182 11.517 17.5294 11C15.4133 11.361 13.3531 11.9961 11.401 12.8892C7.52629 18.623 6.47579 24.2138 7.00104 29.7248C9.27057 31.4015 11.8108 32.6767 14.5113 33.495C15.1194 32.6773 15.6575 31.8098 16.12 30.9018C15.2414 30.5736 14.3935 30.1687 13.5859 29.6917C13.799 29.5377 14.0067 29.3796 14.2074 29.2242C16.5561 30.3288 19.1195 30.9014 21.7149 30.9014C24.3103 30.9014 26.8738 30.3288 29.2224 29.2242C29.4259 29.3906 29.6335 29.5501 29.8439 29.6917C29.0353 30.1697 28.1859 30.5751 27.3057 30.9031C27.7677 31.8106 28.3053 32.6783 28.9144 33.495C31.617 32.6801 34.159 31.4056 36.4288 29.7275C37.0448 23.3351 35.3769 17.7952 32.0164 12.8837ZM16.7842 26.3354C15.3212 26.3354 14.1112 25.0071 14.1112 23.3722C14.1112 21.7387 15.2799 20.3981 16.7787 20.3981C18.2815 20.3981 19.4805 21.7387 19.4558 23.3722C19.4283 25.0071 18.276 26.3354 16.7842 26.3354ZM26.6457 26.3354C25.1799 26.3354 23.974 25.0071 23.974 23.3722C23.974 21.7387 25.1428 20.3981 26.6457 20.3981C28.1485 20.3981 29.3393 21.7387 29.3132 23.3722C29.2884 25.0071 28.1375 26.3354 26.6457 26.3354Z" fill="white"/>
</g>
</svg>
